<?xml version="1.0" encoding="UTF-8"?>
<!DOCTYPE svg PUBLIC "-//W3C//DTD SVG 1.1//EN" "http://www.w3.org/Graphics/SVG/1.1/DTD/svg11.dtd">
<!-- Creator: CorelDRAW 2020 (64-Bit) -->
<svg xmlns="http://www.w3.org/2000/svg" xml:space="preserve" width="15.4127mm" height="4.9497mm" version="1.1" style="shape-rendering:geometricPrecision; text-rendering:geometricPrecision; image-rendering:optimizeQuality; fill-rule:evenodd; clip-rule:evenodd"
viewBox="0 0 1453.59 466.81"
 xmlns:xlink="http://www.w3.org/1999/xlink"
 xmlns:xodm="http://www.corel.com/coreldraw/odm/2003">
 <defs>
  <style type="text/css">
   <![CDATA[
    .fil0 {fill:#FEFEFE}
   ]]>
  </style>
 </defs>
 <g id="Livello_x0020_1">
  <metadata id="CorelCorpID_0Corel-Layer"/>
  <path class="fil0" d="M234.18 447.96c-42.2,0 -85.95,-14.3 -117.97,-35.71 -6.23,-4.16 -9.85,-6.92 -15.23,-11.12l-14.29 -12.05c-36.23,-35.86 -66.2,-90.75 -66.2,-141.65 0,-28.08 -0.9,-43.41 7.31,-71.72 3.5,-12.09 8.83,-25.94 14.13,-37.1 8.57,-18.02 19.9,-32.93 32.58,-47.93 0.2,-0.23 0.48,-0.56 0.67,-0.79 0.2,-0.23 0.48,-0.56 0.68,-0.79 1.42,-1.64 1.96,-2.19 3.53,-3.78 64.97,-65.81 154.85,-83.41 240.33,-47.82 7.03,2.93 11.54,4.85 17.78,8.56 15.93,9.52 32.26,20.14 45.66,33.39 36.75,36.34 64.74,92.27 64.74,146.03 0,53.81 -10.6,90.05 -39.8,132.92 -3.39,4.97 -7.65,10.2 -11.8,14.54 -7.71,8.11 -7.02,10.32 -19.5,20.01 -3.27,2.55 -3.96,3.75 -6.9,6.27 -35.2,30.12 -89.1,48.73 -135.69,48.73zm-234.18 -215.16c0,27.93 7.67,68.8 19.98,94.19 3.26,6.72 5.65,12.18 9.06,18.75 7.09,13.63 26.25,39.62 37.16,50.66 65.99,66.73 154.1,85.97 244.64,57.96 7.38,-2.28 12.96,-5.3 19.75,-8.06l58.37 -38.24c3.43,-3.34 4.64,-3.59 8.06,-6.57 16.08,-14 36.81,-45.51 46.48,-64.76 38.32,-76.39 30.15,-173.35 -21.53,-241.94l-25.74 -29.88c-10.59,-8.82 -19.23,-16.84 -30.96,-24.66 -71.53,-47.67 -150.08,-51.63 -228.53,-19.06 -17.49,7.26 -38.46,21.32 -52.86,33.5 -16.14,13.64 -15.18,13.47 -28.6,28.48 -33.77,37.79 -55.28,99.03 -55.28,149.63z"/>
  <path class="fil0" d="M289.81 351.36c13.48,0 28.29,-5.89 35.13,-16.1 -1.81,-6.76 -50.34,-52.46 -58.18,-60.39 -8.99,-9.1 -6.17,-5.19 -13.76,-11.12 -39.78,-31.07 -39.58,-42.2 -71.14,-73.76l-48.66 -47.94c-35.39,23.69 -7.96,76.34 9.23,104.94 6.43,10.7 14.51,19.31 22.12,29.1 22.82,29.38 83.42,75.26 125.26,75.26z"/>
  <path class="fil0" d="M515.21 322.08c-1.71,-7.36 -3.23,-26.89 2.89,-30.84 2.12,-1.37 42.09,-1.62 49.9,1.47 14.51,5.75 12.26,24.4 -2.37,28.56 -9.11,2.58 -38.8,0.81 -50.42,0.81zm-27.8 70.26c0,8.28 14.75,10.69 26.34,2.92 0,-7.32 0.03,-14.65 -0.02,-21.97 -0.06,-9.82 1.48,-13.39 1.48,-21.94 11.02,-2.57 17.61,-1.46 30.75,-1.46 19.83,0 27.04,49.77 45.37,49.77 25.33,0 6.57,-4.06 21.96,-4.39 -4.72,-8.89 -27.59,-42.49 -29.27,-49.77 3.69,-5.51 9.4,-5.74 15.52,-16.66 16.63,-29.71 1.94,-68.22 -37.48,-68.22l-74.65 0 0 131.73z"/>
  <path class="fil0" d="M1103.62 301.6c0,25.56 -2.11,64.78 -0.88,88.18 0.6,11.53 12.77,9.88 19.9,9.88 5.09,0 2.06,-2.59 8.79,-4.39l0 -65.87c13.59,-7.19 38.62,-5.82 43,5.31 2.9,7.38 0.91,49.19 0.91,60.56 0.7,0.19 11.19,8.64 23.25,2.76 5.27,-2.57 -2.55,-0.19 4.56,-2.76 0,-15.61 0.11,-31.25 -0.02,-46.85 -0.08,-9.27 -0.99,-14.28 4.95,-18.49 4.8,-3.41 10.08,-4.7 15.59,-4.9 23.1,-0.9 23.53,10.26 23.42,23.4 -0.14,15.6 -0.03,31.25 -0.03,46.85 0.71,0.19 11.19,8.64 23.26,2.76 5.26,-2.57 -2.55,-0.19 4.56,-2.76 0,-61.75 12.11,-99.53 -46.83,-99.53 -10.61,0 -33.54,3.19 -36.59,14.64l-2.93 0c-1.16,-4.35 -1.19,-4 -4.89,-6.82 -1.94,-1.47 -5.09,-3.41 -7.35,-4.36 -17.35,-7.29 -56.96,-1.26 -72.65,2.4z"/>
  <path class="fil0" d="M743.55 166.93c6.72,1.8 3.7,4.39 8.78,4.39l84.9 0c13.27,0 10.24,-10.49 10.24,-26.35 0,-3.37 -1.02,-4.39 -4.39,-4.39l-71.72 0c0,-31.3 -7.01,-26.24 47.05,-25.83 3.93,0.03 13.76,0.35 18.62,-2.14 5.06,-2.58 -2.38,-0.25 4.58,-2.76l0 -23.43 -65.86 0c-6.25,0 -4.39,-5.61 -4.39,-19.02 0,-5.91 6.84,-5.25 10.5,-5.44 10.8,-0.56 56.28,1.37 60.59,-0.94 7.54,-4.04 5.03,-12.85 5.03,-28.75l-103.92 0 0 134.66z"/>
  <path class="fil0" d="M1090.44 120.1c0,24.88 8.78,39.67 27.97,45.22 25.38,7.36 46.67,-5.19 46.67,6.01 0,18.16 -64.04,2.97 -65.87,2.92 1.37,5.86 2.08,8.72 3.29,15.74 2.58,15.04 8.56,15.98 22.63,18.25l9.43 0.65c19.02,1.04 44.98,1.24 54.96,-18.98 2.07,-4.21 4.84,-11.56 4.84,-17.12l0 -96.6c0,-6.63 -7.51,-4.39 -23.42,-4.39 -6.17,0 -4.55,6.61 -4.44,13.13l0.05 54.21c-11.01,2.57 -17.6,1.46 -30.74,1.46 -14.69,0 -17.56,-8.87 -17.56,-23.42l0 -45.38 -27.81 0 0 48.31z"/>
  <path class="fil0" d="M828.45 373.31c-8.93,0 -15.66,-2.28 -23.42,-2.92l1.46 -42.45c13.07,-3.05 26.16,-5.87 40.42,2.02 20.98,11.6 10.92,43.35 -18.47,43.35zm-51.23 -68.79l0 127.34c7.12,1.91 3.7,4.62 14.41,4.34 10.11,-0.26 6.91,-2.6 13.4,-4.34 0,-5.89 -0.08,-11.77 -0.08,-17.65 -0.02,-7.93 -0.31,-11.42 5.93,-13.09 0.23,-0.1 0.65,-0.39 0.75,-0.14 0.1,0.28 62.17,10.77 73.09,-40.2 12.5,-58.36 -44.42,-73.97 -96.32,-59.73 -4.63,1.27 -6.71,2.42 -11.18,3.46z"/>
  <path class="fil0" d="M888.46 139.13c5.72,-8.54 16.07,-8.15 23.9,-8.12 11.63,0.05 10,-0.75 22.94,2.26l0 13.18c-9.97,2.32 -29.28,2.8 -38.96,-0.57 -5.81,-2.02 -5.47,-2.21 -7.87,-6.75zm-16.1 -65.87c-1.92,8.24 -4.02,15.51 -5.86,23.42 10.93,0.91 -1.04,5.21 20.58,0.98 13.02,-2.55 47.79,-6.71 48.21,12.19 -19.23,-1.6 -45.44,-4.45 -62.38,4.94 -20.2,11.2 -16.44,40.36 0.01,51.57 16.84,11.48 70.04,7.87 82.74,4.06 3.38,-1.02 8.9,-5.32 8.9,-9.34 0,-55.85 9.11,-93.68 -46.83,-93.68 -17.27,0 -31.47,2.61 -45.37,5.86z"/>
  <path class="fil0" d="M926.51 367.45c7.53,-11.23 37.98,-9.86 48.3,-4.39l0 11.7c-13.24,3.09 -40.55,4.24 -48.3,-7.32zm-16.1 -65.86c-0.36,4.24 -4.41,20.4 -5.86,23.42 11.91,0.26 0.78,5.78 18.78,1.23 12.69,-3.21 49.6,-6.6 50.01,11.94 -18.5,-1.54 -44.05,-4.38 -61.05,4.82 -24.09,13.03 -18.81,51.43 13.77,57.35 1.52,0.27 3.89,0.75 7.03,1.24 2.4,0.38 2,0.25 4.01,0.46 9.93,1.12 48.47,-0.67 56.07,-3 3.73,-1.14 9.45,-5.73 9.45,-9.65l0 -55.62c0,-41.69 -42.69,-39.24 -71.52,-36.39 -6.88,0.68 -13.95,3.63 -20.69,4.2z"/>
  <path class="fil0" d="M1394.89 373.31c-9.91,0 -17.2,-1.82 -23.17,-6.1 -18.32,-13.12 -12.49,-38.26 15.24,-41.62l9.73 0.12c28.08,2.03 37.87,23.97 19.87,40 -4.66,4.14 -13.45,7.6 -21.67,7.6zm-61.47 -27.81c0,18.6 5.43,31.17 14.94,40.69 15.02,15.02 36.79,17.79 55.71,15.66 66.86,-7.53 68.15,-106.1 -9.18,-106.1 -18.8,0 -32.03,4.13 -43.11,12.51 -11.69,8.85 -18.36,21.47 -18.36,37.25z"/>
  <path class="fil0" d="M667.44 323.54c0,25.61 13.46,32.88 35.56,36.32l24.28 4.85c5.89,1.6 5.99,0.67 7.5,7.14 -14.01,6.72 -49.84,1.9 -62.93,-4.39 -1.81,3.76 -6.94,17.34 -7.32,21.96 7.77,2.08 0.83,3.99 11.44,7.59 16.11,5.47 55.05,8.04 72.76,-0.96 14.48,-7.36 31.65,-45.05 -11.61,-57.27 -11.64,-3.29 -21.62,-3.28 -31.87,-6.2 -4.56,-1.29 -6.13,-1.36 -8.53,-4.64 5.91,-3.96 10.47,-4.72 20.57,-4.44l19.79 2.14c8.85,1.78 12.04,4.21 16.78,-3.49 2.94,-4.78 4.35,-12.1 7.27,-17.63 -21.3,-10.21 -93.68,-18.55 -93.68,19.02z"/>
  <path class="fil0" d="M980.67 95.22c0,9.46 1.49,18.14 7.59,24.61 13.07,13.85 36.25,11.33 48.91,15.39 4.8,1.55 6.48,2.9 10.83,3.91 -0.1,1.25 3.06,7.32 -11.7,7.32 -16.23,0 -37.83,-0.9 -51.23,-7.32 -2.2,4.57 -6.84,16.14 -7.32,21.96 7.75,2.07 0.99,4.7 12.57,7.91 13.04,3.62 28.81,4.67 42.19,4.61 11.78,-0.04 32.49,-2.69 39.45,-14.92 10.9,-19.18 7.15,-39.77 -20.48,-47.92 -13.64,-4.03 -30.11,-4.23 -41.53,-9.7 11.7,-17.48 46.89,5.16 55.91,-5.49 3.44,-4.06 5.65,-14.01 8.5,-19.39 -21.24,-10.19 -93.68,-18.82 -93.68,19.03z"/>
  <path class="fil0" d="M1018.72 303.06l0 92.21c7.14,2.58 -0.75,0.21 4.56,2.76 12.18,5.87 22.45,-2.55 23.25,-2.76l0 -62.93c21.18,-4.94 31.25,-1.18 37.96,-4.64 4.71,-2.43 -2.32,-0.22 4.49,-2.68l0 -26.35 -70.26 4.39z"/>
  <path class="fil0" d="M623.53 300.13c-2.55,30.56 -1.46,64.27 -1.46,95.14 11.4,3.05 -4.54,4.39 20.49,4.39 3.52,0 8.78,-5.26 8.78,-8.78l0 -74.65c0,-8.13 -1.46,-8.69 -1.46,-16.11l-26.35 0z"/>
  <path class="fil0" d="M1299.75 300.13l-8.78 0 0 95.14c0.71,0.19 11.19,8.64 23.26,2.76 5.26,-2.57 -2.55,-0.19 4.56,-2.76l0 -95.14 -19.03 0z"/>
  <path class="fil0" d="M272.25 262.07l62.58 63.3 16.81 -16.11c-0.52,-0.67 -0.79,-1.51 -0.88,-1.29 -0.08,0.23 -0.42,-0.74 -0.55,-0.91l-28.55 -29.99c-7.95,-7.88 -24.03,-25.86 -31.85,-31.09 -4.83,1.29 -5.72,3.42 -9.16,6.94 -3.33,3.4 -5.92,5.45 -8.4,9.16z"/>
  <path class="fil0" d="M143.44 133.27l61.11 61.83c5.22,-1.66 14.93,-11.99 17.93,-16.46l-62.94 -62.94c-3.51,2.36 -5.24,4.53 -8.42,7.68 -3.56,3.53 -6.37,4.99 -7.68,9.89z"/>
  <path class="fil0" d="M1290.97 276.71c0,10.11 13.61,23.3 23.32,11.62 19.27,-23.2 -23.32,-34.52 -23.32,-11.62z"/>
  <path class="fil0" d="M623.53 273.79c0,25.79 26.35,25.79 26.35,0 0,-12.44 -26.35,-12.44 -26.35,0z"/>
 </g>
</svg>
