<svg xmlns="http://www.w3.org/2000/svg" xmlns:xlink="http://www.w3.org/1999/xlink" viewBox="0 0 70.28 45.11"><defs><style>.cls-1{fill:none;}.cls-2{clip-path:url(#clip-path);}.cls-3{fill:#fff;}</style><clipPath id="clip-path" transform="translate(0 0)"><rect class="cls-1" width="70.28" height="45.11"/></clipPath></defs><title>Risorsa 1</title><g id="Livello_2" data-name="Livello 2"><g id="Livello_1-2" data-name="Livello 1"><g class="cls-2"><path class="cls-3" d="M5.35,28.34c5.78-2.79,12.84-4.2,19.21-2.9A18.14,18.14,0,0,1,32,29c2.34,1.82,4.06,4.19,6.11,6.3,7.66,7.89,21.46,13.52,31.62,6.88.36-.23.86-.9.39-1.28s-1.25-.06-1.69.23c-4.78,3.12-11,2.34-16.13.58a31.13,31.13,0,0,1-8.15-4.47,44.36,44.36,0,0,1-6.69-6.52,21.09,21.09,0,0,0-13.78-7.39,36.11,36.11,0,0,0-19,3.61c-1.44.7-.74,2.11.7,1.41" transform="translate(0 0)"/><path class="cls-3" d="M10.46,26.67Q6.59,18.9,2.71,11.14C2.18,10.08.6,11,1.12,12.07L8.87,27.59c.53,1.06,2.12.13,1.59-.92" transform="translate(0 0)"/><path class="cls-3" d="M20.3,26.87V8.74a.92.92,0,0,0-1.83,0V26.87a.92.92,0,0,0,1.83,0" transform="translate(0 0)"/><path class="cls-3" d="M7.45,14.58l2.1,4.72c.48,1.09,2.06.15,1.59-.92L9,13.65c-.49-1.08-2.07-.15-1.59.93" transform="translate(0 0)"/><path class="cls-3" d="M13.51,13.38l.78,4.47c.21,1.17,2,.67,1.78-.49-.27-1.49-.53-3-.79-4.46-.21-1.17-2-.67-1.77.48" transform="translate(0 0)"/><path class="cls-3" d="M1.15,12.66,20.2,9.14c1.17-.22.67-2-.49-1.77l-19,3.52c-1.16.22-.66,2,.49,1.77" transform="translate(0 0)"/><path class="cls-3" d="M27.36,27.64q2.2-5.85,4.4-11.69c.42-1.11-1.36-1.59-1.77-.49q-2.2,5.84-4.4,11.69c-.42,1.11,1.36,1.58,1.77.49" transform="translate(0 0)"/><path class="cls-3" d="M24.1,16.66c-.44,1.14-.87,2.28-1.31,3.41s1.35,1.59,1.77.49.88-2.27,1.31-3.41-1.35-1.58-1.77-.49" transform="translate(0 0)"/><path class="cls-3" d="M32,14.53,20,10.89a.92.92,0,0,0-.48,1.77l12,3.65A.92.92,0,0,0,32,14.53" transform="translate(0 0)"/><path class="cls-3" d="M29.73,14.24,34.59,1.76C35,.66,33.24.18,32.81,1.27L28,13.75c-.43,1.11,1.35,1.59,1.78.49" transform="translate(0 0)"/><path class="cls-3" d="M34.1,33.37Q41.45,21.69,48.81,10c.63-1-1-1.93-1.59-.93L32.51,32.44c-.63,1,1,1.93,1.59.93" transform="translate(0 0)"/><path class="cls-3" d="M37.85,10.66l-2.1,3.94c-.56,1.05,1,2,1.59.93l2.1-3.94c.56-1-1-2-1.59-.93" transform="translate(0 0)"/><path class="cls-3" d="M34.24,17.94l-2.1,3.41c-.63,1,1,1.94,1.59.93s1.4-2.28,2.1-3.41-1-1.94-1.59-.93" transform="translate(0 0)"/><path class="cls-3" d="M32.4,1.71l16.21,9c1,.57,2-1,.93-1.59L33.33.12c-1-.57-2,1-.93,1.59" transform="translate(0 0)"/><path class="cls-3" d="M39.47,38.81,53.39,27c.91-.77-.4-2.06-1.3-1.3L38.17,37.51c-.9.77.4,2.06,1.3,1.3" transform="translate(0 0)"/><path class="cls-3" d="M43.28,22.48,41.7,25.11a.92.92,0,0,0,1.59.93l1.58-2.63a.92.92,0,0,0-1.59-.93" transform="translate(0 0)"/><path class="cls-3" d="M42.9,28.6l-1.58,1.84a1,1,0,0,0,0,1.3.93.93,0,0,0,1.3,0L44.2,29.9a1,1,0,0,0,0-1.3.93.93,0,0,0-1.3,0" transform="translate(0 0)"/><path class="cls-3" d="M54.74,26.08,44.9,16.75c-.86-.81-2.16.48-1.3,1.3l9.84,9.33c.86.82,2.16-.48,1.3-1.3" transform="translate(0 0)"/><path class="cls-3" d="M7.62,34.16a1.37,1.37,0,0,0-.32-.94,1.1,1.1,0,0,0-.85-.34.67.67,0,0,0-.76.75v1.81a1.74,1.74,0,0,0,.88.22.89.89,0,0,0,.82-.5,2,2,0,0,0,.23-1m1.27,0a3.12,3.12,0,0,1-.58,1.91,2.1,2.1,0,0,1-1.73.85,2.65,2.65,0,0,1-.89-.13V38a.55.55,0,0,1-.19.46.63.63,0,0,1-.45.17.61.61,0,0,1-.44-.17A.55.55,0,0,1,4.42,38V32.25a.58.58,0,0,1,.19-.47.68.68,0,0,1,.92,0,2,2,0,0,1,.92-.2,2.28,2.28,0,0,1,1.78.75,2.52,2.52,0,0,1,.66,1.79" transform="translate(0 0)"/><path class="cls-3" d="M13.9,34.3a1.44,1.44,0,0,0-.38-1,1.31,1.31,0,0,0-1-.39,1.29,1.29,0,0,0-1,.4,1.41,1.41,0,0,0-.38,1c0,1,.46,1.43,1.36,1.43a1.31,1.31,0,0,0,1-.37,1.5,1.5,0,0,0,.36-1.06m1.27,0a2.67,2.67,0,0,1-.72,1.94,2.54,2.54,0,0,1-1.92.76,2.61,2.61,0,0,1-1.95-.76A2.76,2.76,0,0,1,9.9,34.3a2.69,2.69,0,0,1,.74-1.91,2.49,2.49,0,0,1,1.89-.77,2.48,2.48,0,0,1,1.9.77,2.66,2.66,0,0,1,.74,1.91" transform="translate(0 0)"/><path class="cls-3" d="M21.2,36.29a.62.62,0,0,1-.19.47.67.67,0,0,1-.45.16.64.64,0,0,1-.45-.16.62.62,0,0,1-.19-.47v-2.7a.63.63,0,0,0-.43-.63,2.47,2.47,0,0,0-.94-.1c-1,0-1.29,0-.89,0v3.41a.6.6,0,0,1-.64.63.67.67,0,0,1-.45-.16.62.62,0,0,1-.19-.47V31.63h2.84a1.89,1.89,0,0,1,2,2Z" transform="translate(0 0)"/><path class="cls-3" d="M13,43.64a.57.57,0,0,1-.19.47.67.67,0,0,1-.89,0,.57.57,0,0,1-.19-.47V41a.65.65,0,0,0-.44-.64,2.38,2.38,0,0,0-.93-.1c-1,0-1.3,0-.89,0v3.42a.56.56,0,0,1-.19.46.67.67,0,0,1-.44.17.64.64,0,0,1-.45-.17.57.57,0,0,1-.19-.47V41a.65.65,0,0,0-.44-.64,2.44,2.44,0,0,0-.94-.1c-1,0-1.3,0-.9,0v3.41a.58.58,0,0,1-.19.47.64.64,0,0,1-.44.17.66.66,0,0,1-.45-.17.57.57,0,0,1-.19-.47V39H11a2,2,0,0,1,1.43.54A1.92,1.92,0,0,1,13,40.94Z" transform="translate(0 0)"/><path class="cls-3" d="M17.93,41.25c-.14-.71-.51-1.06-1.12-1.06a1.21,1.21,0,0,0-1.37,1.06Zm1.33,1.26H15.6a1.24,1.24,0,0,0,1.18.58.66.66,0,0,1,.51.19.63.63,0,0,1,.19.46.58.58,0,0,1-.18.43.7.7,0,0,1-.52.18,2.57,2.57,0,0,1-1.91-.73,2.63,2.63,0,0,1-.72-1.93,2.81,2.81,0,0,1,.7-2,2.57,2.57,0,0,1,2-.75,2.21,2.21,0,0,1,1.88.9,3.45,3.45,0,0,1,.57,2Z" transform="translate(0 0)"/><path class="cls-3" d="M22.92,39.05a.59.59,0,0,1,.46.19.65.65,0,0,1,0,.88.56.56,0,0,1-.46.19H22v2.27a1.49,1.49,0,0,0,0,.4c0,.07.15.11.32.11a2.69,2.69,0,0,0,.44-.05.64.64,0,0,1,.73.63c0,.45-.39.68-1.18.68-1.08,0-1.61-.59-1.61-1.77V40.31a.64.64,0,0,1-.42-.2.74.74,0,0,1-.14-.43c0-.19.18-.4.56-.63v-.5a.58.58,0,0,1,.19-.46.6.6,0,0,1,.44-.17.6.6,0,0,1,.45.17.58.58,0,0,1,.19.46v.5Z" transform="translate(0 0)"/><path class="cls-3" d="M27.61,39a.62.62,0,0,1,.53.66.64.64,0,0,1-.15.43.47.47,0,0,1-.4.17l-.15,0a.44.44,0,0,0-.15,0,1.54,1.54,0,0,0-.93.39,1.13,1.13,0,0,0-.49.81v2.25a.57.57,0,0,1-.19.47.67.67,0,0,1-.44.17.66.66,0,0,1-.45-.17.57.57,0,0,1-.19-.47v-4a.58.58,0,0,1,.19-.46.66.66,0,0,1,.44-.17.56.56,0,0,1,.62.51,1.5,1.5,0,0,1,.58-.45,1.87,1.87,0,0,1,.8-.18,1.58,1.58,0,0,1,.38,0" transform="translate(0 0)"/><path class="cls-3" d="M32.9,41.66a1.46,1.46,0,0,0-.38-1,1.3,1.3,0,0,0-1-.39,1.27,1.27,0,0,0-1,.4,1.4,1.4,0,0,0-.38,1c0,1,.45,1.43,1.36,1.43a1.31,1.31,0,0,0,1-.38,1.5,1.5,0,0,0,.35-1.05m1.27,0a2.69,2.69,0,0,1-.72,1.94,2.84,2.84,0,0,1-3.86,0,2.69,2.69,0,0,1-.68-1.93,2.63,2.63,0,0,1,.74-1.91A2.48,2.48,0,0,1,31.54,39a2.51,2.51,0,0,1,1.89.77,2.66,2.66,0,0,1,.74,1.92" transform="translate(0 0)"/></g></g></g></svg>