<svg xmlns="http://www.w3.org/2000/svg" viewBox="0 0 223.54 37.71"><defs><style>.cls-1{fill:#fff;}</style></defs><title>Unione_Europea</title><g id="Livello_2" data-name="Livello 2"><g id="Livello_1-2" data-name="Livello 1"><path class="cls-1" d="M55.14,37.71H0V0H55.14ZM.78,36.93H54.36V.78H.78Z"/><polyline class="cls-1" points="26.46 8.99 27.56 8.2 28.67 8.99 28.25 7.7 29.36 6.89 27.99 6.89 27.56 5.57 27.14 6.89 25.76 6.89 26.88 7.7 26.46 8.99"/><polyline class="cls-1" points="20.75 10.53 21.85 9.72 22.96 10.53 22.53 9.23 23.66 8.43 22.28 8.43 21.85 7.11 21.43 8.43 20.05 8.43 21.17 9.23 20.75 10.53"/><polyline class="cls-1" points="17.68 11.29 17.26 12.62 15.87 12.62 16.99 13.41 16.58 14.72 17.68 13.92 18.78 14.72 18.37 13.41 19.48 12.62 18.1 12.62 17.68 11.29"/><polyline class="cls-1" points="16.15 19.61 17.25 20.41 16.83 19.11 17.95 18.31 16.57 18.31 16.15 16.99 15.73 18.32 14.34 18.31 15.46 19.11 15.05 20.41 16.15 19.61"/><polyline class="cls-1" points="18.1 24.03 17.68 22.71 17.26 24.03 15.87 24.03 16.99 24.84 16.58 26.14 17.68 25.33 18.78 26.14 18.37 24.84 19.48 24.03 18.1 24.03"/><polyline class="cls-1" points="22.29 28.21 21.86 26.9 21.44 28.21 20.06 28.21 21.18 29.02 20.76 30.32 21.86 29.52 22.96 30.32 22.54 29.02 23.66 28.21 22.29 28.21"/><polyline class="cls-1" points="27.99 29.73 27.56 28.41 27.14 29.73 25.76 29.73 26.88 30.54 26.46 31.84 27.56 31.04 28.66 31.84 28.25 30.54 29.36 29.73 27.99 29.73"/><polyline class="cls-1" points="33.69 28.21 33.26 26.9 32.84 28.21 31.46 28.21 32.58 29.02 32.16 30.32 33.26 29.52 34.37 30.32 33.94 29.02 35.07 28.21 33.69 28.21"/><polyline class="cls-1" points="37.87 24.03 37.45 22.71 37.02 24.03 35.65 24.03 36.77 24.84 36.34 26.14 37.45 25.33 38.55 26.14 38.14 24.84 39.25 24.03 37.87 24.03"/><polyline class="cls-1" points="40.77 18.3 39.39 18.3 38.96 16.97 38.54 18.3 37.16 18.3 38.28 19.1 37.86 20.4 38.96 19.6 40.07 20.4 39.65 19.1 40.77 18.3"/><polyline class="cls-1" points="36.34 14.7 37.45 13.89 38.55 14.7 38.14 13.4 39.25 12.6 37.87 12.6 37.45 11.28 37.02 12.6 35.65 12.6 36.77 13.4 36.34 14.7"/><polyline class="cls-1" points="33.28 7.11 32.86 8.43 31.48 8.43 32.59 9.23 32.18 10.53 33.28 9.72 34.39 10.53 33.96 9.23 35.09 8.43 33.7 8.43 33.28 7.11"/><path class="cls-1" d="M70.26,13.92a5.15,5.15,0,0,1-.3,1.82,3.59,3.59,0,0,1-.88,1.36,4,4,0,0,1-1.44.85,6.17,6.17,0,0,1-2,.29A6.35,6.35,0,0,1,63.81,18a3.64,3.64,0,0,1-1.4-.8,3.52,3.52,0,0,1-.88-1.32,5.16,5.16,0,0,1-.3-1.85V7.29a.3.3,0,0,1,.05-.15A.48.48,0,0,1,61.47,7,1.81,1.81,0,0,1,61.81,7a4.45,4.45,0,0,1,.55,0,4.28,4.28,0,0,1,.54,0,2,2,0,0,1,.34.07.37.37,0,0,1,.18.11.24.24,0,0,1,.06.15v6.53A3.52,3.52,0,0,0,63.64,15a2,2,0,0,0,.47.8,1.84,1.84,0,0,0,.72.47,2.59,2.59,0,0,0,1,.16,2.5,2.5,0,0,0,.94-.16,1.86,1.86,0,0,0,.71-.48,2.13,2.13,0,0,0,.45-.76A3.11,3.11,0,0,0,68,14V7.29a.23.23,0,0,1,0-.15A.43.43,0,0,1,68.27,7,1.94,1.94,0,0,1,68.62,7a4.19,4.19,0,0,1,.54,0,4.11,4.11,0,0,1,.53,0A2,2,0,0,1,70,7a.5.5,0,0,1,.18.11.3.3,0,0,1,.05.15v6.63"/><path class="cls-1" d="M81.6,17.25a1,1,0,0,1-.07.35,1,1,0,0,1-.18.26.69.69,0,0,1-.28.15,1.12,1.12,0,0,1-.32,0h-1a1.62,1.62,0,0,1-.51-.06.91.91,0,0,1-.4-.21,2,2,0,0,1-.36-.43c-.11-.18-.24-.41-.38-.7l-2.75-5.16c-.16-.31-.32-.64-.49-1s-.31-.7-.44-1h0c0,.42,0,.82,0,1.23s0,.83,0,1.26v5.78a.3.3,0,0,1-.05.16.34.34,0,0,1-.16.11,1.53,1.53,0,0,1-.31.08l-.51,0-.49,0a1.53,1.53,0,0,1-.31-.08.37.37,0,0,1-.15-.11.3.3,0,0,1,0-.16V7.79a.73.73,0,0,1,.24-.6A.9.9,0,0,1,73.3,7h1.2a2.15,2.15,0,0,1,.55.06,1,1,0,0,1,.39.19,1.24,1.24,0,0,1,.33.35,5.3,5.3,0,0,1,.32.56l2.15,4c.13.24.25.49.37.72s.24.47.36.71l.33.69.32.69h0c0-.4,0-.82,0-1.25s0-.84,0-1.24V7.32a.25.25,0,0,1,.05-.15.43.43,0,0,1,.17-.12A1.24,1.24,0,0,1,80.11,7l.51,0,.48,0a1,1,0,0,1,.31.08.32.32,0,0,1,.19.27v9.93"/><path class="cls-1" d="M86.09,17.73a.25.25,0,0,1-.06.16.39.39,0,0,1-.18.1,1.9,1.9,0,0,1-.34.08l-.55,0-.55,0a1.71,1.71,0,0,1-.34-.08.34.34,0,0,1-.18-.1.25.25,0,0,1-.06-.16V7.29a.24.24,0,0,1,.06-.15A.41.41,0,0,1,84.08,7,1.81,1.81,0,0,1,84.42,7a4.19,4.19,0,0,1,.54,0,4.45,4.45,0,0,1,.55,0,2,2,0,0,1,.34.07.5.5,0,0,1,.18.11.24.24,0,0,1,.06.15V17.73"/><path class="cls-1" d="M98.26,12.38a8.08,8.08,0,0,1-.34,2.46,4.91,4.91,0,0,1-1,1.84,4.33,4.33,0,0,1-1.67,1.16,6.26,6.26,0,0,1-2.3.4,6.91,6.91,0,0,1-2.25-.34,4,4,0,0,1-1.6-1,4.33,4.33,0,0,1-1-1.76,9,9,0,0,1-.32-2.53,7.84,7.84,0,0,1,.34-2.41,5,5,0,0,1,1-1.83,4.34,4.34,0,0,1,1.67-1.15,6.27,6.27,0,0,1,2.31-.4,6.8,6.8,0,0,1,2.21.33,4,4,0,0,1,1.61,1,4.43,4.43,0,0,1,1,1.75,8.32,8.32,0,0,1,.33,2.48m-2.36.12a8.56,8.56,0,0,0-.13-1.58A3.34,3.34,0,0,0,95.3,9.7a2.28,2.28,0,0,0-.87-.79,3.09,3.09,0,0,0-1.37-.28A2.83,2.83,0,0,0,91.67,9a2.62,2.62,0,0,0-.89.83A3.32,3.32,0,0,0,90.3,11a6.92,6.92,0,0,0-.14,1.47,9,9,0,0,0,.13,1.63,3.4,3.4,0,0,0,.47,1.23,2.06,2.06,0,0,0,.87.78,3.07,3.07,0,0,0,1.37.27,2.83,2.83,0,0,0,1.39-.31,2.53,2.53,0,0,0,.89-.83A3.42,3.42,0,0,0,95.76,14,7.15,7.15,0,0,0,95.9,12.5Z"/><path class="cls-1" d="M109.09,17.25a.78.78,0,0,1-.07.35,1,1,0,0,1-.18.26.69.69,0,0,1-.28.15,1.12,1.12,0,0,1-.32,0h-.95a1.62,1.62,0,0,1-.52-.06.91.91,0,0,1-.4-.21,1.75,1.75,0,0,1-.36-.43c-.11-.18-.24-.41-.38-.7l-2.75-5.16c-.16-.31-.33-.64-.49-1s-.31-.7-.44-1h0c0,.42,0,.82,0,1.23s0,.83,0,1.26v5.78a.3.3,0,0,1,0,.16.34.34,0,0,1-.16.11,1.53,1.53,0,0,1-.31.08l-.51,0-.49,0a1.53,1.53,0,0,1-.31-.08.41.41,0,0,1-.16-.11.42.42,0,0,1,0-.16V7.79a.73.73,0,0,1,.24-.6.88.88,0,0,1,.58-.21H102a2.15,2.15,0,0,1,.55.06,1.18,1.18,0,0,1,.39.19,1.24,1.24,0,0,1,.33.35,4,4,0,0,1,.32.56l2.15,4c.13.24.25.49.37.72s.24.47.36.71.22.47.33.69l.31.69h0c0-.4,0-.82-.05-1.25s0-.84,0-1.24V7.32a.2.2,0,0,1,.06-.15.29.29,0,0,1,.17-.12A1,1,0,0,1,107.6,7l.51,0,.48,0a1.07,1.07,0,0,1,.31.08.28.28,0,0,1,.14.12.25.25,0,0,1,0,.15v9.93"/><path class="cls-1" d="M117.87,17.16c0,.16,0,.3,0,.41a1.22,1.22,0,0,1-.06.27.37.37,0,0,1-.11.15.24.24,0,0,1-.14.05H112a.72.72,0,0,1-.48-.17.7.7,0,0,1-.19-.54V7.7a.73.73,0,0,1,.19-.55A.72.72,0,0,1,112,7h5.51a.22.22,0,0,1,.14,0,.28.28,0,0,1,.1.15,1.31,1.31,0,0,1,.07.27c0,.11,0,.25,0,.42s0,.3,0,.41a1.31,1.31,0,0,1-.07.27.28.28,0,0,1-.1.15.22.22,0,0,1-.14.05h-3.94v2.7h3.34a.23.23,0,0,1,.14,0,.37.37,0,0,1,.11.15,2.07,2.07,0,0,1,.06.26c0,.11,0,.25,0,.41s0,.3,0,.41a2.61,2.61,0,0,1-.06.26.4.4,0,0,1-.11.14.23.23,0,0,1-.14,0h-3.34v3.12h4a.19.19,0,0,1,.14,0,.37.37,0,0,1,.11.15,1.26,1.26,0,0,1,.06.26c0,.12,0,.25,0,.42"/><path class="cls-1" d="M130,17.16c0,.16,0,.3,0,.41a1.15,1.15,0,0,1-.07.27.36.36,0,0,1-.1.15.25.25,0,0,1-.15.05h-5.55a.71.71,0,0,1-.47-.17.67.67,0,0,1-.19-.54V7.7a.69.69,0,0,1,.19-.55.71.71,0,0,1,.47-.17h5.52a.24.24,0,0,1,.14,0,.36.36,0,0,1,.1.15.9.9,0,0,1,.06.27,2.42,2.42,0,0,1,0,.42,2.37,2.37,0,0,1,0,.41.9.9,0,0,1-.06.27.36.36,0,0,1-.1.15.24.24,0,0,1-.14.05h-3.95v2.7H129a.26.26,0,0,1,.15,0,.36.36,0,0,1,.1.15,1.05,1.05,0,0,1,.07.26c0,.11,0,.25,0,.41s0,.3,0,.41a1.2,1.2,0,0,1-.07.26.39.39,0,0,1-.1.14.26.26,0,0,1-.15,0h-3.34v3.12h4a.2.2,0,0,1,.15,0,.36.36,0,0,1,.1.15,1.2,1.2,0,0,1,.07.26c0,.12,0,.25,0,.42"/><path class="cls-1" d="M140.83,13.92a5.39,5.39,0,0,1-.29,1.82,3.85,3.85,0,0,1-.88,1.36,4,4,0,0,1-1.44.85,6.22,6.22,0,0,1-2,.29,6.42,6.42,0,0,1-1.88-.26,3.64,3.64,0,0,1-1.4-.8,3.39,3.39,0,0,1-.87-1.32,5.16,5.16,0,0,1-.3-1.85V7.29a.23.23,0,0,1,.05-.15A.37.37,0,0,1,132,7a1.94,1.94,0,0,1,.35-.07,7.3,7.3,0,0,1,1.08,0,1.81,1.81,0,0,1,.34.07.48.48,0,0,1,.19.11.3.3,0,0,1,.05.15v6.53a3.82,3.82,0,0,0,.16,1.14,2.32,2.32,0,0,0,.47.8,1.91,1.91,0,0,0,.72.47,2.63,2.63,0,0,0,.95.16,2.59,2.59,0,0,0,1-.16,1.94,1.94,0,0,0,.71-.48,2.11,2.11,0,0,0,.44-.76,3.11,3.11,0,0,0,.16-1V7.29a.24.24,0,0,1,.06-.15.37.37,0,0,1,.18-.11,1.81,1.81,0,0,1,.34-.07,4.36,4.36,0,0,1,.54,0,4.19,4.19,0,0,1,.54,0,1.68,1.68,0,0,1,.33.07.37.37,0,0,1,.18.11.23.23,0,0,1,.05.15v6.63"/><path class="cls-1" d="M151.26,17.75a.41.41,0,0,1,0,.16.33.33,0,0,1-.17.1,1.41,1.41,0,0,1-.37.06l-.68,0-.57,0a1.31,1.31,0,0,1-.34-.06.32.32,0,0,1-.17-.12.56.56,0,0,1-.09-.17l-1-2.47c-.12-.28-.24-.53-.35-.75a2.25,2.25,0,0,0-.38-.54,1.42,1.42,0,0,0-.48-.33,1.77,1.77,0,0,0-.63-.11h-.7v4.21a.25.25,0,0,1-.06.16.39.39,0,0,1-.18.1,1.84,1.84,0,0,1-.35.08l-.54,0-.54,0a1.84,1.84,0,0,1-.35-.08.39.39,0,0,1-.18-.1.24.24,0,0,1-.05-.16V7.7a.69.69,0,0,1,.19-.55.72.72,0,0,1,.48-.17h2.86l.71,0,.52,0a4.79,4.79,0,0,1,1.2.32,2.89,2.89,0,0,1,.9.6,2.57,2.57,0,0,1,.57.88,3.26,3.26,0,0,1,.2,1.17,3.52,3.52,0,0,1-.14,1,2.76,2.76,0,0,1-.42.82,2.84,2.84,0,0,1-.67.62,3.71,3.71,0,0,1-.92.43,2.29,2.29,0,0,1,.47.29,2.65,2.65,0,0,1,.41.41,3.85,3.85,0,0,1,.36.56,5.73,5.73,0,0,1,.34.7l.93,2.18c.08.22.14.37.17.47a1.48,1.48,0,0,1,0,.24m-2.9-7.5a1.68,1.68,0,0,0-.24-.92,1.36,1.36,0,0,0-.82-.53l-.38-.07a5.17,5.17,0,0,0-.61,0h-1v3.13h1.14a2.66,2.66,0,0,0,.84-.12,1.57,1.57,0,0,0,.6-.32,1.34,1.34,0,0,0,.35-.5A1.71,1.71,0,0,0,148.36,10.25Z"/><path class="cls-1" d="M162.67,12.38a8.08,8.08,0,0,1-.34,2.46,4.89,4.89,0,0,1-1,1.84,4.49,4.49,0,0,1-1.67,1.16,6.35,6.35,0,0,1-2.31.4,6.91,6.91,0,0,1-2.25-.34,4,4,0,0,1-1.6-1,4.33,4.33,0,0,1-1-1.76,9,9,0,0,1-.32-2.53,7.84,7.84,0,0,1,.34-2.41,5,5,0,0,1,1-1.83,4.5,4.5,0,0,1,1.67-1.15,6.27,6.27,0,0,1,2.31-.4,6.87,6.87,0,0,1,2.22.33,4,4,0,0,1,1.6,1,4.31,4.31,0,0,1,1,1.75,8.32,8.32,0,0,1,.33,2.48m-2.35.12a8.52,8.52,0,0,0-.14-1.58,3.34,3.34,0,0,0-.47-1.22,2.28,2.28,0,0,0-.87-.79,3.09,3.09,0,0,0-1.37-.28,2.76,2.76,0,0,0-1.38.32,2.56,2.56,0,0,0-.9.83,3.32,3.32,0,0,0-.48,1.22,7.64,7.64,0,0,0-.14,1.47,8.12,8.12,0,0,0,.14,1.63,3.39,3.39,0,0,0,.46,1.23,2.06,2.06,0,0,0,.87.78,3.07,3.07,0,0,0,1.37.27,2.74,2.74,0,0,0,1.38-.31,2.4,2.4,0,0,0,.9-.83,3.62,3.62,0,0,0,.49-1.24A7.88,7.88,0,0,0,160.32,12.5Z"/><path class="cls-1" d="M172,10.34a4.23,4.23,0,0,1-.29,1.65,3.14,3.14,0,0,1-.84,1.21,3.7,3.7,0,0,1-1.37.75,6.23,6.23,0,0,1-1.89.25h-.93v3.53a.3.3,0,0,1,0,.16.38.38,0,0,1-.19.1,1.71,1.71,0,0,1-.34.08l-.55,0-.54,0a1.71,1.71,0,0,1-.34-.08.3.3,0,0,1-.18-.1.24.24,0,0,1-.05-.16V7.79a.75.75,0,0,1,.21-.6.76.76,0,0,1,.55-.21h2.6c.26,0,.51,0,.75,0s.52.06.85.12a3.82,3.82,0,0,1,1,.37,2.89,2.89,0,0,1,.87.67,2.79,2.79,0,0,1,.55,1,3.8,3.8,0,0,1,.18,1.21m-2.35.17a2,2,0,0,0-.2-1,1.35,1.35,0,0,0-.5-.55,1.72,1.72,0,0,0-.63-.23,3.82,3.82,0,0,0-.68,0h-1v3.75h1a2.35,2.35,0,0,0,.9-.15,1.47,1.47,0,0,0,.59-.4,1.52,1.52,0,0,0,.35-.62A2.29,2.29,0,0,0,169.6,10.51Z"/><path class="cls-1" d="M180.07,17.16a2.49,2.49,0,0,1,0,.41,1.22,1.22,0,0,1-.06.27.37.37,0,0,1-.11.15.24.24,0,0,1-.14.05h-5.55a.72.72,0,0,1-.48-.17.67.67,0,0,1-.19-.54V7.7a.69.69,0,0,1,.19-.55.72.72,0,0,1,.48-.17h5.51a.22.22,0,0,1,.14,0,.28.28,0,0,1,.1.15,1.31,1.31,0,0,1,.07.27c0,.11,0,.25,0,.42s0,.3,0,.41a1.31,1.31,0,0,1-.07.27.28.28,0,0,1-.1.15.22.22,0,0,1-.14.05h-3.94v2.7h3.34a.25.25,0,0,1,.14,0,.37.37,0,0,1,.11.15,1.12,1.12,0,0,1,.06.26,2.49,2.49,0,0,1,0,.41,2.49,2.49,0,0,1,0,.41,1.26,1.26,0,0,1-.06.26.4.4,0,0,1-.11.14.25.25,0,0,1-.14,0h-3.34v3.12h4a.19.19,0,0,1,.14,0,.37.37,0,0,1,.11.15,1.26,1.26,0,0,1,.06.26,2.62,2.62,0,0,1,0,.42"/><path class="cls-1" d="M190.93,17.2a3.32,3.32,0,0,1,.13.49A.3.3,0,0,1,191,18a.58.58,0,0,1-.33.11l-.66,0h-.68A1.49,1.49,0,0,1,189,18a.3.3,0,0,1-.18-.1.75.75,0,0,1-.08-.18l-.75-2.22h-4.15l-.7,2.16a.53.53,0,0,1-.09.2.31.31,0,0,1-.18.13,1.31,1.31,0,0,1-.35.06l-.59,0-.62,0a.44.44,0,0,1-.3-.13.31.31,0,0,1-.06-.28,2.76,2.76,0,0,1,.12-.48l3.41-9.8a1.33,1.33,0,0,1,.12-.24.51.51,0,0,1,.22-.13,1.9,1.9,0,0,1,.42-.06h1.5a2.24,2.24,0,0,1,.46.06.46.46,0,0,1,.24.14.9.9,0,0,1,.13.26l3.41,9.79m-5.07-8.1h0l-1.56,4.69h3.13Z"/><path class="cls-1" d="M64.42,24.51a.66.66,0,0,1,0,.15.29.29,0,0,1,0,.11l0,.06-.07,0h-2.2v2h2.08l.06,0,.06.05a.17.17,0,0,1,0,.1.81.81,0,0,1,0,.16.76.76,0,0,1,0,.16.17.17,0,0,1,0,.1l-.06.06-.06,0H62.06v2.51l0,.07-.07,0-.12,0h-.39l-.12,0-.07,0V24.49a.29.29,0,0,1,.09-.25.32.32,0,0,1,.2-.08h2.71l.07,0,0,.06a.35.35,0,0,1,0,.11.81.81,0,0,1,0,.16"/><path class="cls-1" d="M69.32,27.93a2.91,2.91,0,0,1-.14.95,2.12,2.12,0,0,1-.4.74,1.85,1.85,0,0,1-.67.49,2.45,2.45,0,0,1-.93.17,2.52,2.52,0,0,1-.91-.15,1.81,1.81,0,0,1-.64-.45,2,2,0,0,1-.38-.71,3.48,3.48,0,0,1-.12-.95,3.21,3.21,0,0,1,.13-.95,2.12,2.12,0,0,1,.4-.74,1.72,1.72,0,0,1,.67-.48,2.24,2.24,0,0,1,.93-.17,2.32,2.32,0,0,1,.91.15,1.62,1.62,0,0,1,.64.45,1.93,1.93,0,0,1,.38.71,3.05,3.05,0,0,1,.13.94m-.8.05a3.31,3.31,0,0,0-.06-.64,1.47,1.47,0,0,0-.21-.53,1.07,1.07,0,0,0-.4-.36,1.25,1.25,0,0,0-.61-.13,1.37,1.37,0,0,0-.6.12,1.09,1.09,0,0,0-.4.34,1.46,1.46,0,0,0-.24.52,2.86,2.86,0,0,0-.08.67,2.62,2.62,0,0,0,.07.64,1.47,1.47,0,0,0,.21.53,1.12,1.12,0,0,0,.39.36,1.34,1.34,0,0,0,.63.13,1.31,1.31,0,0,0,.58-.12,1,1,0,0,0,.41-.34,1.39,1.39,0,0,0,.24-.52A2.76,2.76,0,0,0,68.52,28Z"/><path class="cls-1" d="M74.06,30.08l0,.06-.06,0a.18.18,0,0,1-.11,0h-.38a.21.21,0,0,1-.12,0l-.06,0,0-.06V27.62a3,3,0,0,0-.05-.58,1.26,1.26,0,0,0-.17-.37.72.72,0,0,0-.27-.25,1,1,0,0,0-.4-.08,1,1,0,0,0-.57.21,2.63,2.63,0,0,0-.61.6v2.93l0,.06-.06,0a.2.2,0,0,1-.11,0h-.38a.21.21,0,0,1-.12,0l-.06,0,0-.06v-4.2l0-.06,0-.05.11,0H71l.1,0,.06.05v.62a2.55,2.55,0,0,1,.71-.58,1.56,1.56,0,0,1,.71-.18,1.53,1.53,0,0,1,.71.14,1.22,1.22,0,0,1,.46.38,1.56,1.56,0,0,1,.26.55,3.43,3.43,0,0,1,.07.77v2.56"/><path class="cls-1" d="M79.06,30.08l0,.06-.06,0a.15.15,0,0,1-.1,0h-.32a.18.18,0,0,1-.11,0l-.06,0,0-.06v-.56a2.7,2.7,0,0,1-.69.56,1.7,1.7,0,0,1-1.56,0,1.45,1.45,0,0,1-.53-.48,2,2,0,0,1-.3-.72,4.29,4.29,0,0,1,0-1.84,2.26,2.26,0,0,1,.35-.75,1.53,1.53,0,0,1,.57-.47,1.71,1.71,0,0,1,.77-.16,1.42,1.42,0,0,1,.68.16,2.24,2.24,0,0,1,.6.47V23.87l0-.06.06,0,.12,0h.38l.11,0,.06,0,0,.06v6.21m-.78-2.95a3,3,0,0,0-.6-.59,1,1,0,0,0-.61-.21.82.82,0,0,0-.5.15,1,1,0,0,0-.33.36,1.69,1.69,0,0,0-.19.52A2.88,2.88,0,0,0,76,28a4.3,4.3,0,0,0,0,.62,1.94,1.94,0,0,0,.17.53.94.94,0,0,0,.33.38.8.8,0,0,0,.5.15.93.93,0,0,0,.29-.05.81.81,0,0,0,.3-.14,2.83,2.83,0,0,0,.31-.25,2.79,2.79,0,0,0,.34-.39Z"/><path class="cls-1" d="M81.33,24.47a.47.47,0,0,1-.1.36.53.53,0,0,1-.38.1.57.57,0,0,1-.37-.09.55.55,0,0,1-.1-.36.51.51,0,0,1,.11-.37.55.55,0,0,1,.37-.1.55.55,0,0,1,.37.09.51.51,0,0,1,.1.37m-.08,5.61,0,.06-.06,0a.21.21,0,0,1-.12,0h-.38a.21.21,0,0,1-.12,0l-.06,0V25.82l.06,0a.35.35,0,0,1,.12,0h.38a.35.35,0,0,1,.12,0l.06,0,0,.06Z"/><path class="cls-1" d="M88.15,28.5a1.73,1.73,0,0,1-.16.76,1.68,1.68,0,0,1-.43.56,2,2,0,0,1-.65.35,3,3,0,0,1-.81.11,3.24,3.24,0,0,1-.56-.05,2.31,2.31,0,0,1-.46-.13,2.27,2.27,0,0,1-.34-.15l-.2-.13a.52.52,0,0,1-.07-.15.67.67,0,0,1,0-.23.86.86,0,0,1,0-.17l0-.11,0-.06h.06a.51.51,0,0,1,.19.08,1.87,1.87,0,0,0,.3.17,2.51,2.51,0,0,0,.45.17,1.87,1.87,0,0,0,.61.09,1.72,1.72,0,0,0,.47-.07,1.37,1.37,0,0,0,.38-.2,1,1,0,0,0,.24-.31,1.18,1.18,0,0,0,.08-.43.87.87,0,0,0-.11-.44,1.34,1.34,0,0,0-.31-.32,3.63,3.63,0,0,0-.44-.25l-.5-.23-.5-.26a2.44,2.44,0,0,1-.43-.35,1.57,1.57,0,0,1-.31-.45,1.54,1.54,0,0,1-.12-.63,1.48,1.48,0,0,1,.14-.68,1.55,1.55,0,0,1,.38-.5,1.68,1.68,0,0,1,.58-.3,2.48,2.48,0,0,1,.73-.11,2.58,2.58,0,0,1,.4,0,1.59,1.59,0,0,1,.39.1,1.26,1.26,0,0,1,.31.13.58.58,0,0,1,.19.11l.06.07,0,.06a.31.31,0,0,1,0,.1.66.66,0,0,1,0,.15.76.76,0,0,1,0,.15.3.3,0,0,1,0,.1l0,.07-.06,0a.4.4,0,0,1-.16-.06L87.26,25a2.74,2.74,0,0,0-.38-.15,1.53,1.53,0,0,0-.49-.07,1.11,1.11,0,0,0-.43.07.85.85,0,0,0-.31.18.74.74,0,0,0-.19.27,1.13,1.13,0,0,0-.06.32.83.83,0,0,0,.12.43,1.18,1.18,0,0,0,.31.32,2.69,2.69,0,0,0,.44.26l.5.24a3.5,3.5,0,0,1,.51.26,2.41,2.41,0,0,1,.44.33,1.62,1.62,0,0,1,.31.46,1.46,1.46,0,0,1,.12.62"/><path class="cls-1" d="M91.39,29.77a1.06,1.06,0,0,1,0,.21c0,.06,0,.1-.06.12a.23.23,0,0,1-.11.07l-.17,0-.2,0h-.22a1.51,1.51,0,0,1-.55-.09.82.82,0,0,1-.39-.26,1,1,0,0,1-.21-.44,2.38,2.38,0,0,1-.07-.63V26.4H88.8a.13.13,0,0,1-.11-.07.49.49,0,0,1,0-.24.57.57,0,0,1,0-.25l0-.06.07,0h.58V24.7l.06,0a.21.21,0,0,1,.12,0l.19,0,.19,0a.21.21,0,0,1,.12,0l.06,0,0,.06v1h1.07l.07,0,0,.06a.62.62,0,0,1,0,.1s0,.09,0,.15a.48.48,0,0,1,0,.24.11.11,0,0,1-.11.07H90.16v2.34a1.31,1.31,0,0,0,.13.66.48.48,0,0,0,.45.22.54.54,0,0,0,.19,0l.15,0,.11,0,.09,0,0,0,0,0s0,.05,0,.09,0,.08,0,.14"/><path class="cls-1" d="M94.85,26.16v.17c0,.05,0,.08,0,.11l0,.06-.05,0-.09,0-.13,0-.15,0-.18,0a.64.64,0,0,0-.23.05.9.9,0,0,0-.23.15,1.51,1.51,0,0,0-.26.29c-.09.12-.19.26-.3.43v2.76l0,.06-.06,0a.19.19,0,0,1-.12,0H92.6a.21.21,0,0,1-.12,0l-.06,0,0-.06v-4.2l0-.06,0-.05.11,0h.34l.11,0,0,.05,0,.06v.61a2.94,2.94,0,0,1,.32-.4,1.56,1.56,0,0,1,.29-.25.67.67,0,0,1,.27-.13,1.09,1.09,0,0,1,.26,0h.14a.9.9,0,0,1,.16,0l.15,0,.1,0,0,.05,0,.05a.28.28,0,0,1,0,.1v.17"/><path class="cls-1" d="M99.32,30.08l0,.06-.06,0a.15.15,0,0,1-.1,0H98.8a.18.18,0,0,1-.11,0l0,0,0-.06v-.56a2.53,2.53,0,0,1-.7.58,1.57,1.57,0,0,1-.72.18,1.62,1.62,0,0,1-.7-.14,1.26,1.26,0,0,1-.47-.38,1.68,1.68,0,0,1-.25-.56,3.37,3.37,0,0,1-.08-.77V25.88l0-.06.07-.05.11,0h.38l.12,0,.06.05,0,.06v2.44a3.12,3.12,0,0,0,0,.6,1.25,1.25,0,0,0,.16.37.71.71,0,0,0,.28.24.83.83,0,0,0,.39.09,1,1,0,0,0,.58-.21,3.08,3.08,0,0,0,.61-.6v-3l.07-.05.12,0h.37l.12,0,.06.05,0,.06v4.2"/><path class="cls-1" d="M105.77,29.77a.62.62,0,0,1,0,.21.33.33,0,0,1,0,.12l-.11.07-.17,0-.2,0H105a1.53,1.53,0,0,1-.56-.09.84.84,0,0,1-.38-.26,1.07,1.07,0,0,1-.22-.44,2.93,2.93,0,0,1-.06-.63V26.4h-2.09v2.34a1.42,1.42,0,0,0,.13.66.51.51,0,0,0,.46.22.58.58,0,0,0,.19,0l.15,0,.11,0,.08,0,0,0,0,0a.64.64,0,0,1,0,.09.57.57,0,0,1,0,.14v.12l0,.09,0,.07,0,.06-.1.06-.17,0-.2,0h-.21a1.57,1.57,0,0,1-.56-.09.79.79,0,0,1-.38-.26,1.07,1.07,0,0,1-.22-.44,2.88,2.88,0,0,1-.07-.63V26.4h-.58a.13.13,0,0,1-.12-.07.65.65,0,0,1,0-.24c0-.06,0-.12,0-.15a.62.62,0,0,1,0-.1l0-.06.07,0h.58v-1l0-.06.06,0a.21.21,0,0,1,.12,0l.19,0,.19,0a.16.16,0,0,1,.11,0l.06,0,0,.06v1h2.09V24.5l.07-.05.11,0h.38l.11,0,.07.05,0,.07v1.19h1.07l.07,0,0,.06a.15.15,0,0,1,0,.1.62.62,0,0,1,0,.15.49.49,0,0,1,0,.24.12.12,0,0,1-.11.07h-1.07v2.34a1.44,1.44,0,0,0,.12.66.51.51,0,0,0,.46.22.58.58,0,0,0,.19,0l.15,0,.12,0,.08,0,0,0,0,0a.2.2,0,0,1,0,.09.57.57,0,0,1,0,.14"/><path class="cls-1" d="M110.38,30.08v.06l-.06,0a.18.18,0,0,1-.11,0h-.34a.13.13,0,0,1-.1,0l-.06,0v-.62a2.55,2.55,0,0,1-.71.58,1.53,1.53,0,0,1-.71.18,1.62,1.62,0,0,1-.7-.14,1.18,1.18,0,0,1-.47-.38,1.5,1.5,0,0,1-.25-.56,3.37,3.37,0,0,1-.08-.77V25.88l0-.06.06-.05.12,0h.37l.12,0,.06.05,0,.06v2.44a2.41,2.41,0,0,0,.06.6.89.89,0,0,0,.16.37.6.6,0,0,0,.28.24.8.8,0,0,0,.39.09,1,1,0,0,0,.57-.21,2.83,2.83,0,0,0,.61-.6V25.88l0-.06.06-.05.12,0h.37l.12,0,.07.05v4.26"/><path class="cls-1" d="M114.26,26.16c0,.07,0,.12,0,.17a.31.31,0,0,1,0,.11l0,.06-.06,0-.09,0-.12,0-.15,0-.19,0a.59.59,0,0,0-.22.05.79.79,0,0,0-.24.15,1.94,1.94,0,0,0-.26.29c-.09.12-.19.26-.3.43v2.82l-.06,0a.21.21,0,0,1-.12,0H112a.21.21,0,0,1-.12,0l-.06,0V25.82l.06-.05.1,0h.34l.11,0,0,.05,0,.06v.61a2.94,2.94,0,0,1,.32-.4,1.56,1.56,0,0,1,.29-.25.67.67,0,0,1,.27-.13,1.24,1.24,0,0,1,.27,0h.13a.76.76,0,0,1,.16,0l.16,0,.09,0,0,.05,0,.05V26a.81.81,0,0,1,0,.17"/><path class="cls-1" d="M118.1,30.08a.13.13,0,0,1,0,.09l-.11,0h-.38l-.1,0a.1.1,0,0,1,0-.09v-.42a1.93,1.93,0,0,1-.61.46,1.6,1.6,0,0,1-.71.16,2.18,2.18,0,0,1-.6-.08,1.56,1.56,0,0,1-.46-.25,1.09,1.09,0,0,1-.29-.41,1.27,1.27,0,0,1-.11-.54,1.23,1.23,0,0,1,.15-.61,1.12,1.12,0,0,1,.41-.43,2,2,0,0,1,.66-.26,4,4,0,0,1,.88-.09h.58v-.33a1.73,1.73,0,0,0,0-.42.63.63,0,0,0-.17-.31.67.67,0,0,0-.29-.19,1.44,1.44,0,0,0-.45-.06,2,2,0,0,0-.51.06l-.39.15-.29.15a.32.32,0,0,1-.17.07l-.06,0,0-.05a.17.17,0,0,1,0-.1.53.53,0,0,1,0-.13.92.92,0,0,1,0-.18.35.35,0,0,1,.08-.13.93.93,0,0,1,.22-.14l.35-.15a2.83,2.83,0,0,1,.44-.11,2.59,2.59,0,0,1,.48,0,2.48,2.48,0,0,1,.77.1,1.08,1.08,0,0,1,.51.3,1.14,1.14,0,0,1,.29.49,2.29,2.29,0,0,1,.09.68v2.83m-.77-1.91h-.66a2.76,2.76,0,0,0-.54,0,1.17,1.17,0,0,0-.39.16.61.61,0,0,0-.23.25.74.74,0,0,0-.07.34.69.69,0,0,0,.21.52.8.8,0,0,0,.58.19,1.09,1.09,0,0,0,.56-.15,2.44,2.44,0,0,0,.54-.47Z"/><path class="cls-1" d="M120.27,30.08l0,.06,0,0a.21.21,0,0,1-.12,0h-.38a.21.21,0,0,1-.12,0l-.06,0V23.79l.06-.05.12,0h.38l.12,0,0,.05,0,.06v6.23"/><path class="cls-1" d="M122.55,24.47a.47.47,0,0,1-.1.36.53.53,0,0,1-.38.1.57.57,0,0,1-.37-.09.55.55,0,0,1-.1-.36.51.51,0,0,1,.11-.37.55.55,0,0,1,.37-.1.57.57,0,0,1,.37.09.51.51,0,0,1,.1.37m-.08,5.61,0,.06-.06,0a.16.16,0,0,1-.11,0h-.38a.21.21,0,0,1-.12,0l-.06,0V25.82l.06,0a.35.35,0,0,1,.12,0h.38a.24.24,0,0,1,.11,0l.06,0,0,.06Z"/><path class="cls-1" d="M129.62,27.8a.29.29,0,0,1-.09.25.28.28,0,0,1-.21.08h-2.76a2.38,2.38,0,0,0,.07.63,1.34,1.34,0,0,0,.23.48,1,1,0,0,0,.43.31,1.75,1.75,0,0,0,.64.11,2.73,2.73,0,0,0,.53-.05c.16,0,.3-.07.41-.11l.28-.11a.51.51,0,0,1,.17-.05l.06,0,0,.05s0,.05,0,.09v.32l0,.07,0,.05-.15.08-.32.12-.47.1a3.36,3.36,0,0,1-.56,0,2.81,2.81,0,0,1-.91-.14,1.72,1.72,0,0,1-.65-.43,1.83,1.83,0,0,1-.4-.71,3.35,3.35,0,0,1-.14-1,3.2,3.2,0,0,1,.14-1,2,2,0,0,1,.41-.73,1.61,1.61,0,0,1,.63-.46,2.06,2.06,0,0,1,.84-.16,2.14,2.14,0,0,1,.84.15,1.65,1.65,0,0,1,.57.43,1.57,1.57,0,0,1,.32.63,2.39,2.39,0,0,1,.11.77v.14m-.77-.23a1.4,1.4,0,0,0-.27-.95,1,1,0,0,0-.85-.34,1.1,1.1,0,0,0-.49.1,1.06,1.06,0,0,0-.37.29,1.34,1.34,0,0,0-.22.41,2,2,0,0,0-.09.49Z"/><path class="cls-1" d="M136.54,30.08l0,.06-.05,0a.2.2,0,0,1-.11,0H136a.2.2,0,0,1-.11,0l-.06,0,0-.06v-.56a2.84,2.84,0,0,1-.68.56,1.63,1.63,0,0,1-.79.2,1.58,1.58,0,0,1-.78-.18,1.45,1.45,0,0,1-.53-.48,2.48,2.48,0,0,1-.3-.72,4.14,4.14,0,0,1-.09-.87,3.63,3.63,0,0,1,.12-1,2.25,2.25,0,0,1,.34-.75,1.53,1.53,0,0,1,.57-.47,1.73,1.73,0,0,1,.78-.16,1.38,1.38,0,0,1,.67.16,2.28,2.28,0,0,1,.61.47v-2.5l.06,0,.12,0h.38l.11,0,.07,0,0,.06v6.21m-.77-2.95a2.77,2.77,0,0,0-.61-.59,1,1,0,0,0-.61-.21.79.79,0,0,0-.49.15,1.07,1.07,0,0,0-.34.36,2,2,0,0,0-.18.52,2.88,2.88,0,0,0-.06.59,4.3,4.3,0,0,0,0,.62,1.66,1.66,0,0,0,.18.53,1,1,0,0,0,.32.38.8.8,0,0,0,.5.15,1,1,0,0,0,.3-.05.85.85,0,0,0,.29-.14,2.12,2.12,0,0,0,.31-.25,3.61,3.61,0,0,0,.35-.39Z"/><path class="cls-1" d="M138.82,24.47a.47.47,0,0,1-.11.36.51.51,0,0,1-.37.1.55.55,0,0,1-.37-.09.5.5,0,0,1-.1-.36.51.51,0,0,1,.1-.37.58.58,0,0,1,.38-.1.52.52,0,0,1,.36.09.51.51,0,0,1,.11.37m-.09,5.61,0,.06-.06,0a.21.21,0,0,1-.12,0h-.37a.19.19,0,0,1-.12,0l-.07,0V25.82l.07,0a.3.3,0,0,1,.12,0h.37a.35.35,0,0,1,.12,0l.06,0,0,.06Z"/><path class="cls-1" d="M143.2,30.07l0,.07-.07,0-.12,0h-.38l-.13,0-.07,0,0-.07V24.29l0-.07.07,0a.35.35,0,0,1,.12,0H143a.35.35,0,0,1,.12,0l.07,0,0,.07v5.78"/><path class="cls-1" d="M148.32,30.08l0,.06-.06,0a.21.21,0,0,1-.12,0h-.37a.21.21,0,0,1-.12,0l-.06,0,0-.06V27.62a2.29,2.29,0,0,0-.06-.58.89.89,0,0,0-.16-.37.72.72,0,0,0-.27-.25,1,1,0,0,0-.4-.08,1,1,0,0,0-.58.21,2.82,2.82,0,0,0-.6.6v2.93l0,.06-.06,0a.21.21,0,0,1-.12,0h-.37a.19.19,0,0,1-.12,0l-.07,0V25.82l.06-.05.11,0h.34l.1,0,.06.05v.62a2.42,2.42,0,0,1,.71-.58,1.53,1.53,0,0,1,.71-.18,1.48,1.48,0,0,1,.7.14,1.18,1.18,0,0,1,.47.38,1.39,1.39,0,0,1,.25.55,3.37,3.37,0,0,1,.08.77v2.56"/><path class="cls-1" d="M153,25.87V26l0,.06-1.43,4a.79.79,0,0,1,0,.09.31.31,0,0,1-.1.05l-.15,0h-.47a.33.33,0,0,1-.15,0,.19.19,0,0,1-.09-.05l-.05-.08-1.43-4,0-.1v-.1l0-.06.06,0a.35.35,0,0,1,.12,0h.39l.13,0,.07.05,0,.07L151,29.34l0,.06v-.06l1.17-3.45,0-.07.07-.05.12,0h.38a.29.29,0,0,1,.11,0l.06,0v.06"/><path class="cls-1" d="M157.36,27.8a.29.29,0,0,1-.3.33H154.3a2.38,2.38,0,0,0,.07.63,1.08,1.08,0,0,0,.23.48,1,1,0,0,0,.43.31,1.71,1.71,0,0,0,.64.11,2.73,2.73,0,0,0,.53-.05l.41-.11.28-.11a.51.51,0,0,1,.17-.05l.05,0,0,.05a.2.2,0,0,1,0,.09.57.57,0,0,1,0,.14.28.28,0,0,1,0,.1v.08l0,.07,0,.05L157,30l-.33.12-.46.1a3.36,3.36,0,0,1-.56,0,2.76,2.76,0,0,1-.91-.14,1.65,1.65,0,0,1-.65-.43,2,2,0,0,1-.41-.71,3.37,3.37,0,0,1-.13-1,3.2,3.2,0,0,1,.14-1,2,2,0,0,1,.4-.73,1.72,1.72,0,0,1,.64-.46,2,2,0,0,1,.83-.16,2.19,2.19,0,0,1,.85.15,1.65,1.65,0,0,1,.57.43,1.87,1.87,0,0,1,.32.63,2.7,2.7,0,0,1,.11.77v.14m-.78-.23a1.4,1.4,0,0,0-.27-.95,1,1,0,0,0-.84-.34,1.15,1.15,0,0,0-.5.1,1.12,1.12,0,0,0-.36.29,1.16,1.16,0,0,0-.22.41,1.37,1.37,0,0,0-.09.49Z"/><path class="cls-1" d="M161.16,28.93a1.34,1.34,0,0,1-.12.58,1.15,1.15,0,0,1-.34.42,1.41,1.41,0,0,1-.52.26,2.29,2.29,0,0,1-.66.09,2.81,2.81,0,0,1-.43,0l-.37-.09-.27-.11-.16-.11a.24.24,0,0,1-.08-.13,1.21,1.21,0,0,1,0-.23c0-.06,0-.11,0-.15a.64.64,0,0,1,0-.09l0-.06h.06a.29.29,0,0,1,.15.06l.25.14a3.32,3.32,0,0,0,.35.13,1.59,1.59,0,0,0,.46.07,1.78,1.78,0,0,0,.35,0,.8.8,0,0,0,.28-.13.46.46,0,0,0,.18-.21.65.65,0,0,0,.06-.29.49.49,0,0,0-.09-.3,1,1,0,0,0-.24-.22,1.53,1.53,0,0,0-.34-.16l-.38-.15L159,28a1.66,1.66,0,0,1-.34-.25,1.22,1.22,0,0,1-.24-.34,1.34,1.34,0,0,1-.08-.48,1.23,1.23,0,0,1,.09-.47,1,1,0,0,1,.29-.4,1.26,1.26,0,0,1,.47-.27,2,2,0,0,1,.67-.1,1.94,1.94,0,0,1,.34,0l.3.07.23.09.14.09.07.06,0,.07s0,.05,0,.08,0,.08,0,.13,0,.1,0,.14a.51.51,0,0,0,0,.09l0,.06h-.06a.33.33,0,0,1-.12-.05l-.2-.11-.3-.11a1.48,1.48,0,0,0-.39-.05,1.16,1.16,0,0,0-.34.05.65.65,0,0,0-.25.12.52.52,0,0,0-.14.19.69.69,0,0,0-.05.24.5.5,0,0,0,.09.31,1.26,1.26,0,0,0,.24.22,2.28,2.28,0,0,0,.35.17l.38.15a3.52,3.52,0,0,1,.39.17,1.54,1.54,0,0,1,.35.24,1.16,1.16,0,0,1,.24.34,1.08,1.08,0,0,1,.09.46"/><path class="cls-1" d="M165.8,25.76a.24.24,0,0,1,.19.06.29.29,0,0,1,0,.19v4.13l-.07,0a.21.21,0,0,1-.12,0h-.37a.21.21,0,0,1-.12,0l-.06,0,0-.06V26.4H163.1v2.34a1.31,1.31,0,0,0,.13.66.5.5,0,0,0,.46.22.58.58,0,0,0,.19,0l.15,0,.11,0,.09,0,0,0,0,0a.2.2,0,0,1,0,.09.57.57,0,0,1,0,.14.62.62,0,0,1,0,.21.33.33,0,0,1-.05.12.27.27,0,0,1-.12.07l-.16,0-.21,0h-.21a1.53,1.53,0,0,1-.56-.09.84.84,0,0,1-.38-.26,1.07,1.07,0,0,1-.22-.44,2.93,2.93,0,0,1-.06-.63V26.4h-.59a.11.11,0,0,1-.11-.07.48.48,0,0,1,0-.24.54.54,0,0,1,0-.15.15.15,0,0,1,0-.1l0-.06.07,0h.59V24.7l.06,0a.21.21,0,0,1,.12,0l.19,0,.19,0a.18.18,0,0,1,.11,0l.06,0,0,.06v1h2.7m.33-1.29a.47.47,0,0,1-.1.36.53.53,0,0,1-.38.1.57.57,0,0,1-.37-.09.5.5,0,0,1-.1-.36.51.51,0,0,1,.1-.37.6.6,0,0,1,.38-.1.57.57,0,0,1,.37.09A.51.51,0,0,1,166.13,24.47Z"/><path class="cls-1" d="M173.69,30.08l0,.06-.06,0a.21.21,0,0,1-.12,0h-.38a.16.16,0,0,1-.11,0l-.07,0,0-.06V27.53a1.89,1.89,0,0,0,0-.49.87.87,0,0,0-.14-.37.77.77,0,0,0-.26-.25.89.89,0,0,0-.38-.08.88.88,0,0,0-.53.21,3.05,3.05,0,0,0-.59.6v2.93l0,.06-.06,0a.21.21,0,0,1-.12,0h-.37a.21.21,0,0,1-.12,0l-.06,0,0-.06V27.53a1.89,1.89,0,0,0-.05-.49,1,1,0,0,0-.15-.37.77.77,0,0,0-.26-.25.84.84,0,0,0-.37-.08.83.83,0,0,0-.53.21,2.8,2.8,0,0,0-.59.6v2.93l0,.06-.06,0a.21.21,0,0,1-.12,0h-.38a.24.24,0,0,1-.12,0l-.06,0V25.82l.06-.05.1,0H168l.1,0,0,.05,0,.06v.56a2.65,2.65,0,0,1,.69-.58,1.31,1.31,0,0,1,1.78.31,1.74,1.74,0,0,1,.18.33,4.5,4.5,0,0,1,.4-.38,3.16,3.16,0,0,1,.36-.26,1.28,1.28,0,0,1,.35-.14,1.19,1.19,0,0,1,.33,0,1.4,1.4,0,0,1,.68.14,1.16,1.16,0,0,1,.44.38,1.38,1.38,0,0,1,.24.55,3,3,0,0,1,.08.68v2.65"/><path class="cls-1" d="M178.67,27.8a.29.29,0,0,1-.3.33h-2.76a2.38,2.38,0,0,0,.07.63,1.08,1.08,0,0,0,.23.48,1,1,0,0,0,.42.31,1.8,1.8,0,0,0,.65.11,2.73,2.73,0,0,0,.53-.05l.41-.11.28-.11.16-.05.06,0,0,.05a.2.2,0,0,1,0,.09.57.57,0,0,1,0,.14.28.28,0,0,1,0,.1v.08l0,.07,0,.05-.15.08-.33.12-.46.1a3.4,3.4,0,0,1-.57,0,2.74,2.74,0,0,1-.9-.14,1.76,1.76,0,0,1-.66-.43,2.12,2.12,0,0,1-.4-.71,3.37,3.37,0,0,1-.13-1,3.2,3.2,0,0,1,.14-1,2,2,0,0,1,.4-.73,1.72,1.72,0,0,1,.64-.46,2,2,0,0,1,.83-.16,2.1,2.1,0,0,1,.84.15,1.56,1.56,0,0,1,.57.43,1.73,1.73,0,0,1,.33.63,2.7,2.7,0,0,1,.11.77v.14m-.77-.23a1.45,1.45,0,0,0-.28-.95,1,1,0,0,0-.84-.34,1,1,0,0,0-.86.39,1.36,1.36,0,0,0-.23.41,1.62,1.62,0,0,0-.08.49Z"/><path class="cls-1" d="M183.45,30.08l0,.06-.06,0a.21.21,0,0,1-.12,0h-.38a.16.16,0,0,1-.11,0l-.06,0,0-.06V27.62a2.29,2.29,0,0,0-.06-.58,1,1,0,0,0-.16-.37.68.68,0,0,0-.28-.25.93.93,0,0,0-.39-.08,1,1,0,0,0-.58.21,2.61,2.61,0,0,0-.6.6v2.93l0,.06-.07,0a.16.16,0,0,1-.11,0H180a.21.21,0,0,1-.12,0l-.06,0,0-.06v-4.2l0-.06.06-.05.1,0h.35l.1,0,0,.05,0,.06v.56a2.53,2.53,0,0,1,.7-.58,1.6,1.6,0,0,1,.72-.18,1.48,1.48,0,0,1,.7.14,1.26,1.26,0,0,1,.47.38,1.54,1.54,0,0,1,.25.55,3.37,3.37,0,0,1,.08.77v2.56"/><path class="cls-1" d="M186.94,29.77a.62.62,0,0,1,0,.21.17.17,0,0,1-.06.12.23.23,0,0,1-.11.07l-.16,0-.21,0h-.21a1.53,1.53,0,0,1-.56-.09.79.79,0,0,1-.38-.26,1,1,0,0,1-.22-.44,2.88,2.88,0,0,1-.07-.63V26.4h-.59a.13.13,0,0,1-.11-.07.49.49,0,0,1,0-.24c0-.06,0-.12,0-.15a.62.62,0,0,1,0-.1l0-.06.07,0h.58v-1l0-.06.06,0a.21.21,0,0,1,.12,0l.18,0,.2,0a.18.18,0,0,1,.11,0l.06,0,0,.06v1h1.08l.06,0,.05.06s0,.06,0,.1a.62.62,0,0,1,0,.15.49.49,0,0,1,0,.24.13.13,0,0,1-.11.07h-1.08v2.34a1.31,1.31,0,0,0,.13.66.5.5,0,0,0,.46.22.58.58,0,0,0,.19,0l.15,0,.11,0,.08,0,0,0,0,0a.64.64,0,0,1,0,.09.57.57,0,0,1,0,.14"/><path class="cls-1" d="M191.76,27.93a3.21,3.21,0,0,1-.13.95,2.14,2.14,0,0,1-.41.74,1.77,1.77,0,0,1-.67.49,2.7,2.7,0,0,1-1.83,0,1.65,1.65,0,0,1-.64-.45,2,2,0,0,1-.39-.71,3.48,3.48,0,0,1-.12-.95,3.21,3.21,0,0,1,.13-.95,2.29,2.29,0,0,1,.4-.74,1.72,1.72,0,0,1,.67-.48,2.73,2.73,0,0,1,1.84,0,1.62,1.62,0,0,1,.64.45,1.8,1.8,0,0,1,.38.71,3.05,3.05,0,0,1,.13.94M191,28a2.68,2.68,0,0,0-.06-.64,1.47,1.47,0,0,0-.21-.53,1,1,0,0,0-.39-.36,1.29,1.29,0,0,0-.62-.13,1.32,1.32,0,0,0-.59.12,1,1,0,0,0-.41.34,1.66,1.66,0,0,0-.24.52,2.86,2.86,0,0,0-.08.67,3.22,3.22,0,0,0,.07.64,1.47,1.47,0,0,0,.21.53,1.07,1.07,0,0,0,.4.36,1.27,1.27,0,0,0,.62.13,1.38,1.38,0,0,0,.59-.12,1,1,0,0,0,.4-.34,1.39,1.39,0,0,0,.24-.52A2.76,2.76,0,0,0,191,28Z"/><path class="cls-1" d="M198.49,29.86a.66.66,0,0,1,0,.15.17.17,0,0,1,0,.1l0,.06-.07,0h-2.89a.33.33,0,0,1-.21-.07.3.3,0,0,1-.09-.25V24.49a.29.29,0,0,1,.09-.25.34.34,0,0,1,.21-.08h2.86l.07,0,0,.06a.2.2,0,0,1,0,.11.57.57,0,0,1,0,.3.15.15,0,0,1,0,.1l0,.06-.07,0h-2.36v1.89h2l.07,0,.05.06a.29.29,0,0,1,0,.1.81.81,0,0,1,0,.16.61.61,0,0,1,0,.14.29.29,0,0,1,0,.1l-.05.06h-2.09v2.16h2.46l0,.06a.17.17,0,0,1,0,.1.81.81,0,0,1,0,.16"/><path class="cls-1" d="M203.3,30.08l0,.06-.05,0a.2.2,0,0,1-.11,0h-.34a.18.18,0,0,1-.11,0l0,0,0-.06v-.56a2.53,2.53,0,0,1-.7.58,1.56,1.56,0,0,1-.71.18,1.66,1.66,0,0,1-.71-.14,1.15,1.15,0,0,1-.46-.38,1.52,1.52,0,0,1-.26-.56,3.43,3.43,0,0,1-.07-.77V25.82l.07-.05.11,0h.38l.12,0,.06.05,0,.06v2.44a3.12,3.12,0,0,0,0,.6,1.05,1.05,0,0,0,.17.37.62.62,0,0,0,.27.24.86.86,0,0,0,.39.09,1,1,0,0,0,.58-.21,3.08,3.08,0,0,0,.61-.6v-3l.07-.05.12,0h.37l.12,0,.06.05,0,.06v4.2"/><path class="cls-1" d="M207.18,26.16c0,.07,0,.12,0,.17s0,.08,0,.11l0,.06-.06,0-.09,0-.13,0-.15,0-.18,0a.64.64,0,0,0-.23.05.9.9,0,0,0-.23.15,1.51,1.51,0,0,0-.26.29c-.09.12-.19.26-.3.43v2.76l0,.06-.06,0a.19.19,0,0,1-.12,0h-.37a.21.21,0,0,1-.12,0l-.06,0,0-.06v-4.2l0-.06,0-.05.11,0h.34l.11,0,.05.05,0,.06v.61a2.94,2.94,0,0,1,.32-.4,1.56,1.56,0,0,1,.29-.25.67.67,0,0,1,.27-.13,1.09,1.09,0,0,1,.26,0h.14a.9.9,0,0,1,.16,0l.15,0,.1,0,0,.05v.05a.28.28,0,0,1,0,.1s0,.1,0,.17"/><path class="cls-1" d="M211.8,27.93a3.21,3.21,0,0,1-.14.95,2.29,2.29,0,0,1-.4.74,1.94,1.94,0,0,1-.67.49,2.73,2.73,0,0,1-1.84,0,1.65,1.65,0,0,1-.64-.45,1.87,1.87,0,0,1-.38-.71,3.12,3.12,0,0,1-.13-.95,3.21,3.21,0,0,1,.13-.95,2.14,2.14,0,0,1,.41-.74,1.68,1.68,0,0,1,.66-.48,2.73,2.73,0,0,1,1.84,0,1.55,1.55,0,0,1,.64.45,2,2,0,0,1,.39.71,3.39,3.39,0,0,1,.13.94M211,28a3.31,3.31,0,0,0-.06-.64,1.69,1.69,0,0,0-.22-.53,1,1,0,0,0-.39-.36,1.29,1.29,0,0,0-.62-.13,1.35,1.35,0,0,0-.59.12,1,1,0,0,0-.41.34,1.66,1.66,0,0,0-.24.52,2.87,2.87,0,0,0-.07.67,3.24,3.24,0,0,0,.06.64,1.47,1.47,0,0,0,.21.53,1.07,1.07,0,0,0,.4.36,1.29,1.29,0,0,0,.62.13,1.35,1.35,0,0,0,.59-.12,1.12,1.12,0,0,0,.41-.34,1.55,1.55,0,0,0,.23-.52A2.73,2.73,0,0,0,211,28Z"/><path class="cls-1" d="M216.78,27.91a4.22,4.22,0,0,1-.11,1,2.21,2.21,0,0,1-.35.74,1.63,1.63,0,0,1-.57.48,1.78,1.78,0,0,1-.78.16,1.29,1.29,0,0,1-.35,0,1.28,1.28,0,0,1-.31-.11,1.74,1.74,0,0,1-.3-.2c-.1-.08-.2-.18-.32-.29V31.8l-.06.05-.12,0h-.38l-.12,0-.06-.05v-6l.06-.05.1,0h.32l.11,0,.06.05v.63a3.7,3.7,0,0,1,.37-.34,1.88,1.88,0,0,1,.36-.24,1.31,1.31,0,0,1,.37-.15,1.61,1.61,0,0,1,.39,0,1.55,1.55,0,0,1,.78.17,1.5,1.5,0,0,1,.52.48,2.11,2.11,0,0,1,.3.72,4,4,0,0,1,.09.86M216,28a4.21,4.21,0,0,0-.05-.62,1.74,1.74,0,0,0-.17-.53,1,1,0,0,0-.32-.37.82.82,0,0,0-.5-.15,1,1,0,0,0-.3.05,1,1,0,0,0-.29.14,2.16,2.16,0,0,0-.32.25c-.11.1-.22.24-.35.38v1.67a3.29,3.29,0,0,0,.61.59,1,1,0,0,0,.6.21.92.92,0,0,0,.5-.14,1.1,1.1,0,0,0,.34-.37,2.14,2.14,0,0,0,.19-.52A3,3,0,0,0,216,28Z"/><path class="cls-1" d="M221.52,27.8a.31.31,0,0,1-.3.33h-2.76a2.38,2.38,0,0,0,.07.63,1.08,1.08,0,0,0,.23.48,1,1,0,0,0,.43.31,1.67,1.67,0,0,0,.64.11,2.73,2.73,0,0,0,.53-.05l.41-.11.28-.11a.47.47,0,0,1,.16-.05l.06,0,0,.05a.2.2,0,0,1,0,.09.57.57,0,0,1,0,.14.28.28,0,0,1,0,.1v.08l0,.07,0,.05-.15.08-.33.12-.46.1a3.43,3.43,0,0,1-.56,0,2.76,2.76,0,0,1-.91-.14,1.65,1.65,0,0,1-.65-.43,1.84,1.84,0,0,1-.41-.71,3.37,3.37,0,0,1-.13-1,2.91,2.91,0,0,1,.14-1,2,2,0,0,1,.4-.73,1.72,1.72,0,0,1,.64-.46,2,2,0,0,1,.83-.16,2.1,2.1,0,0,1,.84.15,1.69,1.69,0,0,1,.58.43,1.87,1.87,0,0,1,.32.63,2.7,2.7,0,0,1,.11.77v.14m-.78-.23a1.4,1.4,0,0,0-.27-.95,1,1,0,0,0-.84-.34,1.15,1.15,0,0,0-.5.1,1.12,1.12,0,0,0-.36.29,1.16,1.16,0,0,0-.22.41,1.37,1.37,0,0,0-.09.49Z"/><path class="cls-1" d="M223.54,24.47a.47.47,0,0,1-.1.36.53.53,0,0,1-.38.1.57.57,0,0,1-.37-.09.55.55,0,0,1-.1-.36.56.56,0,0,1,.1-.37.6.6,0,0,1,.38-.1.57.57,0,0,1,.37.09.51.51,0,0,1,.1.37m-.09,5.61,0,.06-.06,0a.16.16,0,0,1-.11,0h-.38a.21.21,0,0,1-.12,0l-.06,0V25.82l.06,0a.35.35,0,0,1,.12,0h.38a.24.24,0,0,1,.11,0l.06,0,0,.06Z"/></g></g></svg>